<svg width="1478.6" height="98" viewBox="0 0 1478.6 98" xmlns="http://www.w3.org/2000/svg"><g id="svgGroup" stroke-linecap="round" fill-rule="evenodd" font-size="9pt" stroke="#116530" stroke-width="0.25mm" fill="#116530" style="stroke:#116530;stroke-width:0.25mm;fill:#116530"><path d="M 560.7 64.3 L 561.1 62.3 Q 556.648 67.401 553.4 69.965 A 25.572 25.572 0 0 1 552.9 70.35 A 13.225 13.225 0 0 1 549.512 72.222 A 11.013 11.013 0 0 1 545.7 72.9 A 6.783 6.783 0 0 1 540.556 70.639 A 9.243 9.243 0 0 1 540.05 70.05 A 9.326 9.326 0 0 1 538.522 67.099 Q 538.093 65.769 537.919 64.15 A 22.004 22.004 0 0 1 537.8 61.8 A 29.291 29.291 0 0 1 538.918 53.906 A 34.673 34.673 0 0 1 539.65 51.6 Q 541.5 46.4 544.7 42 A 31.962 31.962 0 0 1 548.984 37.171 A 27.07 27.07 0 0 1 551.9 34.85 A 16.259 16.259 0 0 1 555.845 32.831 A 13.368 13.368 0 0 1 560.2 32.1 A 10.032 10.032 0 0 1 562.727 32.436 A 12.693 12.693 0 0 1 564.15 32.9 Q 566.2 33.7 567.7 34.9 L 569.4 33 L 570.4 33 L 565.5 59.9 A 71.608 71.608 0 0 0 565.168 61.906 Q 564.488 66.445 564.893 68.47 A 4.531 4.531 0 0 0 565 68.9 A 2.965 2.965 0 0 0 567.076 70.94 Q 567.675 71.131 568.432 71.182 A 8.519 8.519 0 0 0 569 71.2 A 12.334 12.334 0 0 0 576.705 68.498 A 15.681 15.681 0 0 0 577.2 68.1 Q 580.9 65 583.1 59.55 Q 585.3 54.1 585.3 46.9 A 30.902 30.902 0 0 0 584.451 39.514 A 25.272 25.272 0 0 0 582.2 33.6 Q 579.1 27.8 573.2 24.5 A 25.181 25.181 0 0 0 565.576 21.787 A 35.033 35.033 0 0 0 559 21.2 Q 551.5 21.2 545.4 23.9 Q 539.3 26.6 535 31.35 A 33.752 33.752 0 0 0 528.499 42.055 A 38.241 38.241 0 0 0 528.35 42.45 A 38.472 38.472 0 0 0 526.009 55.103 A 43.641 43.641 0 0 0 526 56 A 39.06 39.06 0 0 0 526.893 64.613 Q 528.224 70.501 531.538 74.811 A 23.423 23.423 0 0 0 533.6 77.15 A 25.314 25.314 0 0 0 546.558 83.954 A 37.148 37.148 0 0 0 554.2 84.7 A 50.585 50.585 0 0 0 560.024 84.382 Q 562.92 84.046 565.438 83.355 A 30.169 30.169 0 0 0 566.15 83.15 Q 571.3 81.6 575.9 78.5 L 576.6 79.8 Q 571.6 83.2 565.75 85 A 39.934 39.934 0 0 1 558.501 86.48 A 52.327 52.327 0 0 1 552.6 86.8 Q 543.5 86.8 536.5 83.25 Q 529.5 79.7 525.6 73.3 A 26.579 26.579 0 0 1 522.008 62.964 A 34.234 34.234 0 0 1 521.7 58.3 Q 521.7 50.3 524.7 43.15 Q 527.7 36 533.1 30.5 Q 538.5 25 545.55 21.9 Q 552.6 18.8 560.7 18.8 A 35.386 35.386 0 0 1 568.102 19.539 A 26.721 26.721 0 0 1 575.75 22.4 Q 582.1 26 585.55 32.3 A 28.177 28.177 0 0 1 588.835 43.181 A 34.712 34.712 0 0 1 589 46.6 Q 589 51.4 587.5 56.05 Q 586 60.7 583.2 64.55 Q 580.4 68.4 576.4 70.65 A 17.604 17.604 0 0 1 569.326 72.807 A 21.711 21.711 0 0 1 567.3 72.9 Q 563.005 72.9 561.521 70.709 A 3.954 3.954 0 0 1 561.45 70.6 A 6.109 6.109 0 0 1 560.659 68.61 Q 560.362 67.232 560.536 65.481 A 16.099 16.099 0 0 1 560.7 64.3 Z M 1188.2 75 L 1169.8 75 L 1169.8 73.5 L 1176.1 71.8 L 1176.1 33.8 L 1168.8 32.9 L 1168.8 31.4 L 1179.6 29 L 1180.6 29 L 1181 36.2 L 1181.3 36.2 Q 1184.8 32.6 1187.9 30.8 Q 1191 29 1194.7 29 Q 1198.9 29 1202.1 30.8 A 11.089 11.089 0 0 1 1206.667 35.703 A 13.789 13.789 0 0 1 1206.9 36.2 L 1207.1 36.2 A 41.22 41.22 0 0 1 1209.744 33.699 Q 1211.9 31.844 1213.9 30.75 A 14.422 14.422 0 0 1 1220.455 29.009 A 17.064 17.064 0 0 1 1221 29 A 17.388 17.388 0 0 1 1225.593 29.578 A 13.168 13.168 0 0 1 1231 32.5 A 11.24 11.24 0 0 1 1234.352 38.125 Q 1234.831 39.93 1234.891 42.079 A 22.263 22.263 0 0 1 1234.9 42.7 L 1234.9 71.8 L 1241.2 73.5 L 1241.2 75 L 1222.8 75 L 1222.8 73.5 L 1229.9 71.8 L 1229.9 45.4 A 18.894 18.894 0 0 0 1229.592 41.876 Q 1228.916 38.316 1226.75 36.15 A 10.627 10.627 0 0 0 1220.191 33.085 A 14.541 14.541 0 0 0 1218.6 33 A 13.524 13.524 0 0 0 1215.696 33.332 Q 1214.387 33.62 1212.988 34.157 A 22.728 22.728 0 0 0 1212.75 34.25 Q 1209.6 35.5 1207.5 37.9 A 17.006 17.006 0 0 1 1208.029 40.96 A 20.85 20.85 0 0 1 1208.1 42.7 L 1208.1 71.8 L 1214.4 73.5 L 1214.4 75 L 1196 75 L 1196 73.5 L 1203.1 71.8 L 1203.1 45.4 Q 1203.1 41.2 1201.678 38.399 A 9.419 9.419 0 0 0 1200.1 36.15 A 10.015 10.015 0 0 0 1193.472 33.049 A 13.665 13.665 0 0 0 1192.3 33 A 12.452 12.452 0 0 0 1189.212 33.409 Q 1187.8 33.77 1186.3 34.45 A 13.876 13.876 0 0 0 1182.467 36.987 A 12.833 12.833 0 0 0 1181.1 38.5 L 1181.1 71.8 L 1188.2 73.5 L 1188.2 75 Z M 1425.6 75 L 1407.2 75 L 1407.2 73.5 L 1413.5 71.8 L 1413.5 33.8 L 1406.2 32.9 L 1406.2 31.4 L 1417 29 L 1418 29 L 1418.4 36.2 L 1418.7 36.2 Q 1422.2 32.6 1425.3 30.8 Q 1428.4 29 1432.1 29 Q 1436.3 29 1439.5 30.8 A 11.089 11.089 0 0 1 1444.067 35.703 A 13.789 13.789 0 0 1 1444.3 36.2 L 1444.5 36.2 A 41.22 41.22 0 0 1 1447.144 33.699 Q 1449.3 31.844 1451.3 30.75 A 14.422 14.422 0 0 1 1457.855 29.009 A 17.064 17.064 0 0 1 1458.4 29 A 17.388 17.388 0 0 1 1462.993 29.578 A 13.168 13.168 0 0 1 1468.4 32.5 A 11.24 11.24 0 0 1 1471.752 38.125 Q 1472.231 39.93 1472.291 42.079 A 22.263 22.263 0 0 1 1472.3 42.7 L 1472.3 71.8 L 1478.6 73.5 L 1478.6 75 L 1460.2 75 L 1460.2 73.5 L 1467.3 71.8 L 1467.3 45.4 A 18.894 18.894 0 0 0 1466.992 41.876 Q 1466.316 38.316 1464.15 36.15 A 10.627 10.627 0 0 0 1457.591 33.085 A 14.541 14.541 0 0 0 1456 33 A 13.524 13.524 0 0 0 1453.096 33.332 Q 1451.787 33.62 1450.388 34.157 A 22.728 22.728 0 0 0 1450.15 34.25 Q 1447 35.5 1444.9 37.9 A 17.006 17.006 0 0 1 1445.429 40.96 A 20.85 20.85 0 0 1 1445.5 42.7 L 1445.5 71.8 L 1451.8 73.5 L 1451.8 75 L 1433.4 75 L 1433.4 73.5 L 1440.5 71.8 L 1440.5 45.4 Q 1440.5 41.2 1439.078 38.399 A 9.419 9.419 0 0 0 1437.5 36.15 A 10.015 10.015 0 0 0 1430.872 33.049 A 13.665 13.665 0 0 0 1429.7 33 A 12.452 12.452 0 0 0 1426.612 33.409 Q 1425.2 33.77 1423.7 34.45 A 13.876 13.876 0 0 0 1419.867 36.987 A 12.833 12.833 0 0 0 1418.5 38.5 L 1418.5 71.8 L 1425.6 73.5 L 1425.6 75 Z M 341.2 75.5 L 340.2 75.5 L 326.2 33.4 L 319.9 31.5 L 319.9 30 L 339.1 30 L 339.1 31.5 L 331.4 33.2 L 331.4 33.5 L 342 68.2 L 342.4 68.2 L 356.4 30 L 357.9 30 L 371.9 67.9 L 372.3 67.9 L 382.7 33.6 L 382.7 33.3 L 374.6 31.5 L 374.6 30 L 392.3 30 L 392.3 31.5 L 385.9 33.4 L 371.2 75.5 L 370.2 75.5 L 356 38.8 L 341.2 75.5 Z M 827.9 75.5 L 826.9 75.5 L 812.9 33.4 L 806.6 31.5 L 806.6 30 L 825.8 30 L 825.8 31.5 L 818.1 33.2 L 818.1 33.5 L 828.7 68.2 L 829.1 68.2 L 843.1 30 L 844.6 30 L 858.6 67.9 L 859 67.9 L 869.4 33.6 L 869.4 33.3 L 861.3 31.5 L 861.3 30 L 879 30 L 879 31.5 L 872.6 33.4 L 857.9 75.5 L 856.9 75.5 L 842.7 38.8 L 827.9 75.5 Z M 177 75 L 158.6 75 L 158.6 73.5 L 164.9 71.8 L 164.9 4.8 L 157.6 2.9 L 157.6 1.4 L 168.9 0 L 169.9 0 L 169.9 36.2 L 170.1 36.2 Q 172.909 33.315 175.488 31.64 A 18.637 18.637 0 0 1 177.1 30.7 A 15.42 15.42 0 0 1 182.929 29.065 A 18.722 18.722 0 0 1 184.5 29 A 18.564 18.564 0 0 1 189.237 29.575 A 13.85 13.85 0 0 1 194.85 32.5 A 11.254 11.254 0 0 1 198.421 38.472 Q 198.885 40.337 198.9 42.556 A 21.986 21.986 0 0 1 198.9 42.7 L 198.9 71.8 L 205.2 73.5 L 205.2 75 L 186.8 75 L 186.8 73.5 L 193.9 71.8 L 193.9 45.4 A 18.329 18.329 0 0 0 193.583 41.876 Q 192.884 38.316 190.65 36.15 A 10.977 10.977 0 0 0 184.697 33.209 A 15.467 15.467 0 0 0 182.1 33 Q 179.1 33 175.6 34.45 A 14.983 14.983 0 0 0 171.733 36.751 A 13.398 13.398 0 0 0 169.9 38.6 L 169.9 71.8 L 177 73.5 L 177 75 Z M 620.2 75 L 601.8 75 L 601.8 73.5 L 608.1 71.8 L 608.1 4.8 L 600.8 2.9 L 600.8 1.4 L 612.1 0 L 613.1 0 L 613.1 36.2 L 613.3 36.2 Q 616.109 33.315 618.688 31.64 A 18.637 18.637 0 0 1 620.3 30.7 A 15.42 15.42 0 0 1 626.129 29.065 A 18.722 18.722 0 0 1 627.7 29 A 18.564 18.564 0 0 1 632.437 29.575 A 13.85 13.85 0 0 1 638.05 32.5 A 11.254 11.254 0 0 1 641.621 38.472 Q 642.085 40.337 642.1 42.556 A 21.986 21.986 0 0 1 642.1 42.7 L 642.1 71.8 L 648.4 73.5 L 648.4 75 L 630 75 L 630 73.5 L 637.1 71.8 L 637.1 45.4 A 18.329 18.329 0 0 0 636.783 41.876 Q 636.084 38.316 633.85 36.15 A 10.977 10.977 0 0 0 627.897 33.209 A 15.467 15.467 0 0 0 625.3 33 Q 622.3 33 618.8 34.45 A 14.983 14.983 0 0 0 614.933 36.751 A 13.398 13.398 0 0 0 613.1 38.6 L 613.1 71.8 L 620.2 73.5 L 620.2 75 Z M 21.5 75 L 2.5 75 L 2.5 73.5 L 8.8 71.8 L 8.8 33.4 L 0 33.4 L 0 30 L 8.8 30 L 8.8 26 A 26.857 26.857 0 0 1 9.276 21.074 A 34.399 34.399 0 0 1 10.15 17.5 Q 11.5 13 14.15 9 Q 16.8 5 20.8 2.5 A 16.459 16.459 0 0 1 27.804 0.124 A 20.784 20.784 0 0 1 30.1 0 A 7.221 7.221 0 0 1 31.253 0.088 A 5.402 5.402 0 0 1 32.4 0.4 Q 33.556 0.906 33.877 1.516 A 1.028 1.028 0 0 1 34 2 Q 34 2.563 33.736 3.213 A 4.783 4.783 0 0 1 33.7 3.3 L 32.6 6 L 32.4 6 L 30.3 5.3 Q 27.2 4.3 24.3 4.3 A 9.8 9.8 0 0 0 20.698 4.935 Q 18.35 5.855 16.763 8.108 A 11.262 11.262 0 0 0 16.5 8.5 Q 14.132 12.184 13.841 19.793 A 57.828 57.828 0 0 0 13.8 22 L 13.8 30 L 27 30 L 27 33.4 L 13.8 33.4 L 13.8 71.8 L 21.5 73.5 L 21.5 75 Z M 234.4 75 L 215.4 75 L 215.4 73.5 L 221.7 71.8 L 221.7 33.4 L 212.9 33.4 L 212.9 30 L 221.7 30 L 221.7 26 A 26.857 26.857 0 0 1 222.176 21.074 A 34.399 34.399 0 0 1 223.05 17.5 Q 224.4 13 227.05 9 Q 229.7 5 233.7 2.5 A 16.459 16.459 0 0 1 240.704 0.124 A 20.784 20.784 0 0 1 243 0 A 7.221 7.221 0 0 1 244.153 0.088 A 5.402 5.402 0 0 1 245.3 0.4 Q 246.456 0.906 246.777 1.516 A 1.028 1.028 0 0 1 246.9 2 Q 246.9 2.563 246.636 3.213 A 4.783 4.783 0 0 1 246.6 3.3 L 245.5 6 L 245.3 6 L 243.2 5.3 Q 240.1 4.3 237.2 4.3 A 9.8 9.8 0 0 0 233.598 4.935 Q 231.25 5.855 229.663 8.108 A 11.262 11.262 0 0 0 229.4 8.5 Q 227.032 12.184 226.741 19.793 A 57.828 57.828 0 0 0 226.7 22 L 226.7 30 L 239.9 30 L 239.9 33.4 L 226.7 33.4 L 226.7 71.8 L 234.4 73.5 L 234.4 75 Z M 727.4 98 L 709 98 L 709 96.5 L 715.3 94.8 L 715.3 33.8 L 708 32.9 L 708 31.4 L 718.8 29 L 719.8 29 L 720.2 35.2 L 720.7 35.2 A 36.54 36.54 0 0 1 723.97 32.73 Q 726.05 31.345 728.05 30.5 A 19.317 19.317 0 0 1 735.19 29.006 A 22.137 22.137 0 0 1 735.7 29 Q 740.7 29 744.6 31.6 A 16.956 16.956 0 0 1 749.676 36.958 A 21.27 21.27 0 0 1 750.75 38.95 Q 752.926 43.544 752.998 49.867 A 38.184 38.184 0 0 1 753 50.3 Q 753 58.5 749.8 64.25 A 23.366 23.366 0 0 1 745.12 70.237 A 21.125 21.125 0 0 1 741.3 73 Q 736 76 729.6 76 A 14.38 14.38 0 0 1 726.626 75.677 A 17.741 17.741 0 0 1 725 75.25 Q 722.6 74.5 720.3 73.3 L 720.3 94.8 L 727.4 96.5 L 727.4 98 Z M 990.7 75 L 989.8 75 L 989.8 4.8 L 982.5 3.4 L 982.5 1.9 L 993.8 0 L 994.8 0 L 994.8 35.2 L 995.2 35.2 A 35.724 35.724 0 0 1 998.487 32.725 Q 1000.575 31.344 1002.6 30.5 Q 1006.2 29 1010.2 29 Q 1015.2 29 1019.1 31.6 A 16.956 16.956 0 0 1 1024.176 36.958 A 21.27 21.27 0 0 1 1025.25 38.95 Q 1027.426 43.544 1027.498 49.867 A 38.184 38.184 0 0 1 1027.5 50.3 Q 1027.5 58.5 1024.3 64.25 A 23.366 23.366 0 0 1 1019.62 70.237 A 21.125 21.125 0 0 1 1015.8 73 Q 1010.5 76 1004.1 76 Q 1001.5 76 998.45 74.9 A 30.672 30.672 0 0 1 993.209 72.447 A 28.306 28.306 0 0 1 992.8 72.2 L 990.7 75 Z M 119.6 73.1 L 119.6 62.7 L 120.8 62.7 L 122.2 67.2 A 9.211 9.211 0 0 0 123.854 70.392 A 8.718 8.718 0 0 0 125.5 71.95 A 8.099 8.099 0 0 0 127.881 73.115 Q 128.991 73.461 130.335 73.603 A 18.821 18.821 0 0 0 132.3 73.7 Q 135.839 73.7 138.209 72.423 A 8.114 8.114 0 0 0 139.75 71.35 A 7.607 7.607 0 0 0 142.111 67.281 A 11.718 11.718 0 0 0 142.4 64.6 Q 142.4 61.214 140.817 59.071 A 7.057 7.057 0 0 0 140.3 58.45 A 10.243 10.243 0 0 0 138.834 57.18 Q 137.165 55.966 134.461 54.738 A 49.834 49.834 0 0 0 132.5 53.9 A 44.064 44.064 0 0 1 129.058 52.361 Q 125.724 50.683 123.782 48.828 A 13.023 13.023 0 0 1 123.65 48.7 A 9.07 9.07 0 0 1 121.279 44.562 Q 120.89 43.157 120.817 41.486 A 17.996 17.996 0 0 1 120.8 40.7 Q 120.8 37.5 122.55 34.85 Q 124.3 32.2 127.2 30.6 Q 130.1 29 133.4 29 A 27.562 27.562 0 0 1 136.797 29.199 A 20.271 20.271 0 0 1 140 29.85 A 33.684 33.684 0 0 1 142.384 30.642 Q 143.595 31.097 144.625 31.609 A 19.6 19.6 0 0 1 145 31.8 L 145 42 L 143.8 42 L 142.5 37.7 A 9.632 9.632 0 0 0 141.478 35.313 A 7.182 7.182 0 0 0 138.75 32.7 A 12.508 12.508 0 0 0 135.684 31.498 A 10.589 10.589 0 0 0 133.2 31.2 Q 129.3 31.2 127.25 33.5 A 7.916 7.916 0 0 0 125.401 37.318 A 11.279 11.279 0 0 0 125.2 39.5 A 10.009 10.009 0 0 0 125.478 41.928 A 6.844 6.844 0 0 0 127.4 45.3 A 12.752 12.752 0 0 0 129.039 46.603 Q 131.131 48.025 134.5 49.4 A 70.432 70.432 0 0 1 137.509 50.708 Q 138.859 51.336 140.001 51.951 A 32.055 32.055 0 0 1 141.65 52.9 A 12.616 12.616 0 0 1 143.91 54.659 A 9.875 9.875 0 0 1 145.7 57.05 A 10.254 10.254 0 0 1 146.611 59.548 Q 146.879 60.699 146.962 62.041 A 20.281 20.281 0 0 1 147 63.3 Q 147 66.7 145.1 69.6 Q 143.2 72.5 139.7 74.25 A 16.208 16.208 0 0 1 135.121 75.711 A 21.749 21.749 0 0 1 131.5 76 A 27.97 27.97 0 0 1 128.285 75.824 A 20.495 20.495 0 0 1 125.25 75.25 A 31.083 31.083 0 0 1 121.487 73.949 A 37.426 37.426 0 0 1 119.6 73.1 Z M 480.5 73.1 L 480.5 62.7 L 481.7 62.7 L 483.1 67.2 A 9.211 9.211 0 0 0 484.754 70.392 A 8.718 8.718 0 0 0 486.4 71.95 A 8.099 8.099 0 0 0 488.781 73.115 Q 489.891 73.461 491.235 73.603 A 18.821 18.821 0 0 0 493.2 73.7 Q 496.739 73.7 499.109 72.423 A 8.114 8.114 0 0 0 500.65 71.35 A 7.607 7.607 0 0 0 503.011 67.281 A 11.718 11.718 0 0 0 503.3 64.6 Q 503.3 61.214 501.717 59.071 A 7.057 7.057 0 0 0 501.2 58.45 A 10.243 10.243 0 0 0 499.734 57.18 Q 498.065 55.966 495.361 54.738 A 49.834 49.834 0 0 0 493.4 53.9 A 44.064 44.064 0 0 1 489.958 52.361 Q 486.624 50.683 484.682 48.828 A 13.023 13.023 0 0 1 484.55 48.7 A 9.07 9.07 0 0 1 482.179 44.562 Q 481.79 43.157 481.717 41.486 A 17.996 17.996 0 0 1 481.7 40.7 Q 481.7 37.5 483.45 34.85 Q 485.2 32.2 488.1 30.6 Q 491 29 494.3 29 A 27.562 27.562 0 0 1 497.697 29.199 A 20.271 20.271 0 0 1 500.9 29.85 A 33.684 33.684 0 0 1 503.284 30.642 Q 504.495 31.097 505.525 31.609 A 19.6 19.6 0 0 1 505.9 31.8 L 505.9 42 L 504.7 42 L 503.4 37.7 A 9.632 9.632 0 0 0 502.378 35.313 A 7.182 7.182 0 0 0 499.65 32.7 A 12.508 12.508 0 0 0 496.584 31.498 A 10.589 10.589 0 0 0 494.1 31.2 Q 490.2 31.2 488.15 33.5 A 7.916 7.916 0 0 0 486.301 37.318 A 11.279 11.279 0 0 0 486.1 39.5 A 10.009 10.009 0 0 0 486.378 41.928 A 6.844 6.844 0 0 0 488.3 45.3 A 12.752 12.752 0 0 0 489.939 46.603 Q 492.031 48.025 495.4 49.4 A 70.432 70.432 0 0 1 498.409 50.708 Q 499.759 51.336 500.901 51.951 A 32.055 32.055 0 0 1 502.55 52.9 A 12.616 12.616 0 0 1 504.81 54.659 A 9.875 9.875 0 0 1 506.6 57.05 A 10.254 10.254 0 0 1 507.511 59.548 Q 507.779 60.699 507.862 62.041 A 20.281 20.281 0 0 1 507.9 63.3 Q 507.9 66.7 506 69.6 Q 504.1 72.5 500.6 74.25 A 16.208 16.208 0 0 1 496.021 75.711 A 21.749 21.749 0 0 1 492.4 76 A 27.97 27.97 0 0 1 489.185 75.824 A 20.495 20.495 0 0 1 486.15 75.25 A 31.083 31.083 0 0 1 482.387 73.949 A 37.426 37.426 0 0 1 480.5 73.1 Z M 1250.8 73.1 L 1250.8 62.7 L 1252 62.7 L 1253.4 67.2 A 9.211 9.211 0 0 0 1255.054 70.392 A 8.718 8.718 0 0 0 1256.7 71.95 A 8.099 8.099 0 0 0 1259.081 73.115 Q 1260.191 73.461 1261.535 73.603 A 18.821 18.821 0 0 0 1263.5 73.7 Q 1267.039 73.7 1269.409 72.423 A 8.114 8.114 0 0 0 1270.95 71.35 A 7.607 7.607 0 0 0 1273.311 67.281 A 11.718 11.718 0 0 0 1273.6 64.6 Q 1273.6 61.214 1272.017 59.071 A 7.057 7.057 0 0 0 1271.5 58.45 A 10.243 10.243 0 0 0 1270.034 57.18 Q 1268.365 55.966 1265.661 54.738 A 49.834 49.834 0 0 0 1263.7 53.9 A 44.064 44.064 0 0 1 1260.258 52.361 Q 1256.924 50.683 1254.982 48.828 A 13.023 13.023 0 0 1 1254.85 48.7 A 9.07 9.07 0 0 1 1252.479 44.562 Q 1252.09 43.157 1252.017 41.486 A 17.996 17.996 0 0 1 1252 40.7 Q 1252 37.5 1253.75 34.85 Q 1255.5 32.2 1258.4 30.6 Q 1261.3 29 1264.6 29 A 27.562 27.562 0 0 1 1267.997 29.199 A 20.271 20.271 0 0 1 1271.2 29.85 A 33.684 33.684 0 0 1 1273.584 30.642 Q 1274.795 31.097 1275.825 31.609 A 19.6 19.6 0 0 1 1276.2 31.8 L 1276.2 42 L 1275 42 L 1273.7 37.7 A 9.632 9.632 0 0 0 1272.678 35.313 A 7.182 7.182 0 0 0 1269.95 32.7 A 12.508 12.508 0 0 0 1266.884 31.498 A 10.589 10.589 0 0 0 1264.4 31.2 Q 1260.5 31.2 1258.45 33.5 A 7.916 7.916 0 0 0 1256.601 37.318 A 11.279 11.279 0 0 0 1256.4 39.5 A 10.009 10.009 0 0 0 1256.678 41.928 A 6.844 6.844 0 0 0 1258.6 45.3 A 12.752 12.752 0 0 0 1260.239 46.603 Q 1262.331 48.025 1265.7 49.4 A 70.432 70.432 0 0 1 1268.709 50.708 Q 1270.059 51.336 1271.201 51.951 A 32.055 32.055 0 0 1 1272.85 52.9 A 12.616 12.616 0 0 1 1275.11 54.659 A 9.875 9.875 0 0 1 1276.9 57.05 A 10.254 10.254 0 0 1 1277.811 59.548 Q 1278.079 60.699 1278.162 62.041 A 20.281 20.281 0 0 1 1278.2 63.3 Q 1278.2 66.7 1276.3 69.6 Q 1274.4 72.5 1270.9 74.25 A 16.208 16.208 0 0 1 1266.321 75.711 A 21.749 21.749 0 0 1 1262.7 76 A 27.97 27.97 0 0 1 1259.485 75.824 A 20.495 20.495 0 0 1 1256.45 75.25 A 31.083 31.083 0 0 1 1252.687 73.949 A 37.426 37.426 0 0 1 1250.8 73.1 Z M 1345.6 37.6 L 1342.9 39.9 L 1342.5 39.9 L 1341.2 38.1 A 26.64 26.64 0 0 0 1338.614 35.057 A 21.349 21.349 0 0 0 1336.45 33.15 A 9.173 9.173 0 0 0 1332.857 31.51 Q 1331.494 31.2 1329.9 31.2 Q 1322.9 31.2 1318.35 36.45 Q 1314.86 40.477 1314.047 47.535 A 39.957 39.957 0 0 0 1313.8 52.1 Q 1313.8 60.9 1318.45 66.35 A 15.147 15.147 0 0 0 1327.576 71.457 A 22.518 22.518 0 0 0 1331.6 71.8 A 26.496 26.496 0 0 0 1337.206 71.225 A 22.81 22.81 0 0 0 1340.1 70.4 A 18.9 18.9 0 0 0 1342.988 69.098 Q 1344.592 68.195 1345.772 67.042 A 11.202 11.202 0 0 0 1346.2 66.6 L 1346.5 66.6 L 1346.5 67.9 Q 1344.2 71.4 1340 73.7 A 18.503 18.503 0 0 1 1333.885 75.728 A 24.125 24.125 0 0 1 1330.2 76 A 27.066 27.066 0 0 1 1324.884 75.505 Q 1321.496 74.827 1318.806 73.219 A 16.943 16.943 0 0 1 1318.45 73 Q 1313.7 70 1311.25 64.9 A 24.851 24.851 0 0 1 1308.994 56.897 A 30.813 30.813 0 0 1 1308.8 53.4 A 29.463 29.463 0 0 1 1309.701 45.985 A 24.851 24.851 0 0 1 1311.65 40.85 Q 1314.5 35.3 1319.55 32.15 A 20.907 20.907 0 0 1 1329.812 29.028 A 25.266 25.266 0 0 1 1331 29 A 24.79 24.79 0 0 1 1334.664 29.258 A 18.385 18.385 0 0 1 1338.1 30.1 A 30.451 30.451 0 0 1 1340.256 30.953 Q 1341.913 31.688 1343.1 32.5 A 17.692 17.692 0 0 1 1344.327 33.418 Q 1346.21 34.97 1346.296 36.185 A 1.636 1.636 0 0 1 1346.3 36.3 Q 1346.3 37 1345.6 37.6 Z M 108.3 48.6 L 108 48.9 L 75.3 48.9 A 44.997 44.997 0 0 0 75.214 50.853 A 54.064 54.064 0 0 0 75.2 52.1 A 26.639 26.639 0 0 0 75.868 58.229 A 18.67 18.67 0 0 0 79.95 66.35 A 15.477 15.477 0 0 0 89.003 71.416 A 22.888 22.888 0 0 0 93.3 71.8 A 27.343 27.343 0 0 0 98.319 71.357 A 22.258 22.258 0 0 0 101.85 70.4 Q 105.7 69 107.9 66.6 L 108.2 66.6 L 108.2 67.9 A 15.552 15.552 0 0 1 104.43 71.977 A 20.299 20.299 0 0 1 101.75 73.7 A 18.963 18.963 0 0 1 95.309 75.77 A 24.456 24.456 0 0 1 91.9 76 A 27.915 27.915 0 0 1 86.503 75.505 Q 83.059 74.827 80.313 73.219 A 17.476 17.476 0 0 1 79.95 73 Q 75.1 70 72.65 64.9 A 24.851 24.851 0 0 1 70.394 56.897 A 30.813 30.813 0 0 1 70.2 53.4 Q 70.2 46.6 73.05 41.1 A 25.419 25.419 0 0 1 77.503 34.892 A 22.825 22.825 0 0 1 80.55 32.3 Q 85.2 29 90.7 29 A 19.271 19.271 0 0 1 96.095 29.716 A 14.383 14.383 0 0 1 103.1 34.2 A 19.52 19.52 0 0 1 106.69 40.513 Q 107.639 43.182 108.07 46.397 A 38.646 38.646 0 0 1 108.3 48.6 Z M 433.1 48.6 L 432.8 48.9 L 400.1 48.9 A 44.997 44.997 0 0 0 400.014 50.853 A 54.064 54.064 0 0 0 400 52.1 A 26.639 26.639 0 0 0 400.668 58.229 A 18.67 18.67 0 0 0 404.75 66.35 A 15.477 15.477 0 0 0 413.803 71.416 A 22.888 22.888 0 0 0 418.1 71.8 A 27.343 27.343 0 0 0 423.119 71.357 A 22.258 22.258 0 0 0 426.65 70.4 Q 430.5 69 432.7 66.6 L 433 66.6 L 433 67.9 A 15.552 15.552 0 0 1 429.23 71.977 A 20.299 20.299 0 0 1 426.55 73.7 A 18.963 18.963 0 0 1 420.109 75.77 A 24.456 24.456 0 0 1 416.7 76 A 27.915 27.915 0 0 1 411.303 75.505 Q 407.859 74.827 405.113 73.219 A 17.476 17.476 0 0 1 404.75 73 Q 399.9 70 397.45 64.9 A 24.851 24.851 0 0 1 395.194 56.897 A 30.813 30.813 0 0 1 395 53.4 Q 395 46.6 397.85 41.1 A 25.419 25.419 0 0 1 402.303 34.892 A 22.825 22.825 0 0 1 405.35 32.3 Q 410 29 415.5 29 A 19.271 19.271 0 0 1 420.895 29.716 A 14.383 14.383 0 0 1 427.9 34.2 A 19.52 19.52 0 0 1 431.49 40.513 Q 432.439 43.182 432.87 46.397 A 38.646 38.646 0 0 1 433.1 48.6 Z M 802.9 48.6 L 802.6 48.9 L 769.9 48.9 A 44.997 44.997 0 0 0 769.814 50.853 A 54.064 54.064 0 0 0 769.8 52.1 A 26.639 26.639 0 0 0 770.468 58.229 A 18.67 18.67 0 0 0 774.55 66.35 A 15.477 15.477 0 0 0 783.603 71.416 A 22.888 22.888 0 0 0 787.9 71.8 A 27.343 27.343 0 0 0 792.919 71.357 A 22.258 22.258 0 0 0 796.45 70.4 Q 800.3 69 802.5 66.6 L 802.8 66.6 L 802.8 67.9 A 15.552 15.552 0 0 1 799.03 71.977 A 20.299 20.299 0 0 1 796.35 73.7 A 18.963 18.963 0 0 1 789.909 75.77 A 24.456 24.456 0 0 1 786.5 76 A 27.915 27.915 0 0 1 781.103 75.505 Q 777.659 74.827 774.913 73.219 A 17.476 17.476 0 0 1 774.55 73 Q 769.7 70 767.25 64.9 A 24.851 24.851 0 0 1 764.994 56.897 A 30.813 30.813 0 0 1 764.8 53.4 Q 764.8 46.6 767.65 41.1 A 25.419 25.419 0 0 1 772.103 34.892 A 22.825 22.825 0 0 1 775.15 32.3 Q 779.8 29 785.3 29 A 19.271 19.271 0 0 1 790.695 29.716 A 14.383 14.383 0 0 1 797.7 34.2 A 19.52 19.52 0 0 1 801.29 40.513 Q 802.239 43.182 802.67 46.397 A 38.646 38.646 0 0 1 802.9 48.6 Z M 919.8 48.6 L 919.5 48.9 L 886.8 48.9 A 44.997 44.997 0 0 0 886.714 50.853 A 54.064 54.064 0 0 0 886.7 52.1 A 26.639 26.639 0 0 0 887.368 58.229 A 18.67 18.67 0 0 0 891.45 66.35 A 15.477 15.477 0 0 0 900.503 71.416 A 22.888 22.888 0 0 0 904.8 71.8 A 27.343 27.343 0 0 0 909.819 71.357 A 22.258 22.258 0 0 0 913.35 70.4 Q 917.2 69 919.4 66.6 L 919.7 66.6 L 919.7 67.9 A 15.552 15.552 0 0 1 915.93 71.977 A 20.299 20.299 0 0 1 913.25 73.7 A 18.963 18.963 0 0 1 906.809 75.77 A 24.456 24.456 0 0 1 903.4 76 A 27.915 27.915 0 0 1 898.003 75.505 Q 894.559 74.827 891.813 73.219 A 17.476 17.476 0 0 1 891.45 73 Q 886.6 70 884.15 64.9 A 24.851 24.851 0 0 1 881.894 56.897 A 30.813 30.813 0 0 1 881.7 53.4 Q 881.7 46.6 884.55 41.1 A 25.419 25.419 0 0 1 889.003 34.892 A 22.825 22.825 0 0 1 892.05 32.3 Q 896.7 29 902.2 29 A 19.271 19.271 0 0 1 907.595 29.716 A 14.383 14.383 0 0 1 914.6 34.2 A 19.52 19.52 0 0 1 918.19 40.513 Q 919.139 43.182 919.57 46.397 A 38.646 38.646 0 0 1 919.8 48.6 Z M 265.8 75 L 247.4 75 L 247.4 73.5 L 253.7 71.8 L 253.7 4.8 L 246.4 2.9 L 246.4 1.4 L 257.7 0 L 258.7 0 L 258.7 71.8 L 265.8 73.5 L 265.8 75 Z M 947.6 75 L 929.2 75 L 929.2 73.5 L 935.5 71.8 L 935.5 4.8 L 928.2 2.9 L 928.2 1.4 L 939.5 0 L 940.5 0 L 940.5 71.8 L 947.6 73.5 L 947.6 75 Z M 974.8 75 L 956.4 75 L 956.4 73.5 L 962.7 71.8 L 962.7 4.8 L 955.4 2.9 L 955.4 1.4 L 966.7 0 L 967.7 0 L 967.7 71.8 L 974.8 73.5 L 974.8 75 Z M 1056.2 75 L 1037.8 75 L 1037.8 73.5 L 1044.1 71.8 L 1044.1 4.8 L 1036.8 2.9 L 1036.8 1.4 L 1048.1 0 L 1049.1 0 L 1049.1 71.8 L 1056.2 73.5 L 1056.2 75 Z M 54.3 75 L 35.3 75 L 35.3 73.5 L 41.6 71.8 L 41.6 33.8 L 34.3 32.9 L 34.3 31.4 L 45.1 29 L 46.1 29 L 46.6 37.9 L 46.8 37.9 Q 50.7 33.8 53 31.9 A 25.038 25.038 0 0 1 54.23 30.942 Q 55.722 29.859 56.8 29.5 A 9.51 9.51 0 0 1 58.614 29.096 A 12.61 12.61 0 0 1 60.2 29 A 8.372 8.372 0 0 1 62.113 29.212 A 7.136 7.136 0 0 1 63.3 29.6 A 11.851 11.851 0 0 1 63.819 29.821 Q 64.427 30.098 64.75 30.35 A 1.12 1.12 0 0 1 65.194 31.167 A 1.494 1.494 0 0 1 65.2 31.3 A 1.906 1.906 0 0 1 65.189 31.499 Q 65.177 31.617 65.15 31.75 Q 65.1 32 65 32.4 L 64 35 L 63.8 35 L 61.9 34.1 Q 60.838 33.569 59.259 33.441 A 13.098 13.098 0 0 0 58.2 33.4 A 11.236 11.236 0 0 0 54.031 34.227 A 14.261 14.261 0 0 0 52.4 35 A 13.008 13.008 0 0 0 50.134 36.616 Q 49.14 37.486 48.146 38.638 A 29.549 29.549 0 0 0 46.6 40.6 L 46.6 71.8 L 54.3 73.5 L 54.3 75 Z M 463.3 75 L 444.3 75 L 444.3 73.5 L 450.6 71.8 L 450.6 33.8 L 443.3 32.9 L 443.3 31.4 L 454.1 29 L 455.1 29 L 455.6 37.9 L 455.8 37.9 Q 459.7 33.8 462 31.9 A 25.038 25.038 0 0 1 463.23 30.942 Q 464.722 29.859 465.8 29.5 A 9.51 9.51 0 0 1 467.614 29.096 A 12.61 12.61 0 0 1 469.2 29 A 8.372 8.372 0 0 1 471.113 29.212 A 7.136 7.136 0 0 1 472.3 29.6 A 11.851 11.851 0 0 1 472.819 29.821 Q 473.427 30.098 473.75 30.35 A 1.12 1.12 0 0 1 474.194 31.167 A 1.494 1.494 0 0 1 474.2 31.3 A 1.906 1.906 0 0 1 474.189 31.499 Q 474.177 31.617 474.15 31.75 Q 474.1 32 474 32.4 L 473 35 L 472.8 35 L 470.9 34.1 Q 469.838 33.569 468.259 33.441 A 13.098 13.098 0 0 0 467.2 33.4 A 11.236 11.236 0 0 0 463.031 34.227 A 14.261 14.261 0 0 0 461.4 35 A 13.008 13.008 0 0 0 459.134 36.616 Q 458.14 37.486 457.146 38.638 A 29.549 29.549 0 0 0 455.6 40.6 L 455.6 71.8 L 463.3 73.5 L 463.3 75 Z M 289.559 75.099 A 20.284 20.284 0 0 0 295.7 76 A 22.713 22.713 0 0 0 297.57 75.924 A 18.198 18.198 0 0 0 306.4 72.9 A 20.43 20.43 0 0 0 308.955 70.866 A 21.736 21.736 0 0 0 313.6 64.5 A 24.457 24.457 0 0 0 315.422 59.409 A 29.581 29.581 0 0 0 316.2 52.5 A 31.746 31.746 0 0 0 315.994 48.842 A 25.444 25.444 0 0 0 313.6 40.5 A 24.786 24.786 0 0 0 313.267 39.846 A 20.944 20.944 0 0 0 306.4 32.1 A 17.601 17.601 0 0 0 301.841 29.901 A 20.284 20.284 0 0 0 295.7 29 A 22.713 22.713 0 0 0 293.83 29.076 A 18.198 18.198 0 0 0 285 32.1 A 20.43 20.43 0 0 0 282.445 34.135 A 21.736 21.736 0 0 0 277.8 40.5 A 24.457 24.457 0 0 0 275.978 45.591 A 29.581 29.581 0 0 0 275.2 52.5 A 31.746 31.746 0 0 0 275.406 56.158 A 25.444 25.444 0 0 0 277.8 64.5 A 24.786 24.786 0 0 0 278.133 65.154 A 20.944 20.944 0 0 0 285 72.9 A 17.601 17.601 0 0 0 289.559 75.099 Z M 671.559 75.099 A 20.284 20.284 0 0 0 677.7 76 A 22.713 22.713 0 0 0 679.57 75.924 A 18.198 18.198 0 0 0 688.4 72.9 A 20.43 20.43 0 0 0 690.955 70.866 A 21.736 21.736 0 0 0 695.6 64.5 A 24.457 24.457 0 0 0 697.422 59.409 A 29.581 29.581 0 0 0 698.2 52.5 A 31.746 31.746 0 0 0 697.994 48.842 A 25.444 25.444 0 0 0 695.6 40.5 A 24.786 24.786 0 0 0 695.267 39.846 A 20.944 20.944 0 0 0 688.4 32.1 A 17.601 17.601 0 0 0 683.841 29.901 A 20.284 20.284 0 0 0 677.7 29 A 22.713 22.713 0 0 0 675.83 29.076 A 18.198 18.198 0 0 0 667 32.1 A 20.43 20.43 0 0 0 664.445 34.135 A 21.736 21.736 0 0 0 659.8 40.5 A 24.457 24.457 0 0 0 657.978 45.591 A 29.581 29.581 0 0 0 657.2 52.5 A 31.746 31.746 0 0 0 657.406 56.158 A 25.444 25.444 0 0 0 659.8 64.5 A 24.786 24.786 0 0 0 660.133 65.154 A 20.944 20.944 0 0 0 667 72.9 A 17.601 17.601 0 0 0 671.559 75.099 Z M 1079.959 75.099 A 20.284 20.284 0 0 0 1086.1 76 A 22.713 22.713 0 0 0 1087.97 75.924 A 18.198 18.198 0 0 0 1096.8 72.9 A 20.43 20.43 0 0 0 1099.355 70.866 A 21.736 21.736 0 0 0 1104 64.5 A 24.457 24.457 0 0 0 1105.822 59.409 A 29.581 29.581 0 0 0 1106.6 52.5 A 31.746 31.746 0 0 0 1106.394 48.842 A 25.444 25.444 0 0 0 1104 40.5 A 24.786 24.786 0 0 0 1103.667 39.846 A 20.944 20.944 0 0 0 1096.8 32.1 A 17.601 17.601 0 0 0 1092.241 29.901 A 20.284 20.284 0 0 0 1086.1 29 A 22.713 22.713 0 0 0 1084.23 29.076 A 18.198 18.198 0 0 0 1075.4 32.1 A 20.43 20.43 0 0 0 1072.845 34.135 A 21.736 21.736 0 0 0 1068.2 40.5 A 24.457 24.457 0 0 0 1066.378 45.591 A 29.581 29.581 0 0 0 1065.6 52.5 A 31.746 31.746 0 0 0 1065.806 56.158 A 25.444 25.444 0 0 0 1068.2 64.5 A 24.786 24.786 0 0 0 1068.533 65.154 A 20.944 20.944 0 0 0 1075.4 72.9 A 17.601 17.601 0 0 0 1079.959 75.099 Z M 1132.959 75.099 A 20.284 20.284 0 0 0 1139.1 76 A 22.713 22.713 0 0 0 1140.97 75.924 A 18.198 18.198 0 0 0 1149.8 72.9 A 20.43 20.43 0 0 0 1152.355 70.866 A 21.736 21.736 0 0 0 1157 64.5 A 24.457 24.457 0 0 0 1158.822 59.409 A 29.581 29.581 0 0 0 1159.6 52.5 A 31.746 31.746 0 0 0 1159.394 48.842 A 25.444 25.444 0 0 0 1157 40.5 A 24.786 24.786 0 0 0 1156.667 39.846 A 20.944 20.944 0 0 0 1149.8 32.1 A 17.601 17.601 0 0 0 1145.241 29.901 A 20.284 20.284 0 0 0 1139.1 29 A 22.713 22.713 0 0 0 1137.23 29.076 A 18.198 18.198 0 0 0 1128.4 32.1 A 20.43 20.43 0 0 0 1125.845 34.135 A 21.736 21.736 0 0 0 1121.2 40.5 A 24.457 24.457 0 0 0 1119.378 45.591 A 29.581 29.581 0 0 0 1118.6 52.5 A 31.746 31.746 0 0 0 1118.806 56.158 A 25.444 25.444 0 0 0 1121.2 64.5 A 24.786 24.786 0 0 0 1121.533 65.154 A 20.944 20.944 0 0 0 1128.4 72.9 A 17.601 17.601 0 0 0 1132.959 75.099 Z M 1370.359 75.099 A 20.284 20.284 0 0 0 1376.5 76 A 22.713 22.713 0 0 0 1378.37 75.924 A 18.198 18.198 0 0 0 1387.2 72.9 A 20.43 20.43 0 0 0 1389.755 70.866 A 21.736 21.736 0 0 0 1394.4 64.5 A 24.457 24.457 0 0 0 1396.222 59.409 A 29.581 29.581 0 0 0 1397 52.5 A 31.746 31.746 0 0 0 1396.794 48.842 A 25.444 25.444 0 0 0 1394.4 40.5 A 24.786 24.786 0 0 0 1394.067 39.846 A 20.944 20.944 0 0 0 1387.2 32.1 A 17.601 17.601 0 0 0 1382.641 29.901 A 20.284 20.284 0 0 0 1376.5 29 A 22.713 22.713 0 0 0 1374.63 29.076 A 18.198 18.198 0 0 0 1365.8 32.1 A 20.43 20.43 0 0 0 1363.245 34.135 A 21.736 21.736 0 0 0 1358.6 40.5 A 24.457 24.457 0 0 0 1356.778 45.591 A 29.581 29.581 0 0 0 1356 52.5 A 31.746 31.746 0 0 0 1356.206 56.158 A 25.444 25.444 0 0 0 1358.6 64.5 A 24.786 24.786 0 0 0 1358.933 65.154 A 20.944 20.944 0 0 0 1365.8 72.9 A 17.601 17.601 0 0 0 1370.359 75.099 Z M 297.1 73.7 A 12.719 12.719 0 0 0 301.09 73.097 A 10.779 10.779 0 0 0 304.85 70.95 A 16.287 16.287 0 0 0 308.795 65.709 A 20.215 20.215 0 0 0 309.6 63.8 Q 311.2 59.4 311.2 54.5 A 38.432 38.432 0 0 0 310.664 47.947 A 30.53 30.53 0 0 0 309.3 42.75 Q 307.4 37.5 303.65 34.35 A 13.386 13.386 0 0 0 295.986 31.262 A 17.398 17.398 0 0 0 294.5 31.2 A 13.236 13.236 0 0 0 290.385 31.818 A 11.332 11.332 0 0 0 286.8 33.75 A 15.159 15.159 0 0 0 282.975 38.346 A 19.293 19.293 0 0 0 281.9 40.65 A 24.658 24.658 0 0 0 280.402 46.802 A 31.136 31.136 0 0 0 280.2 50.4 A 35.655 35.655 0 0 0 280.849 57.333 A 29.162 29.162 0 0 0 282.25 62.2 A 23.019 23.019 0 0 0 284.545 66.685 A 17.982 17.982 0 0 0 288.05 70.6 A 13.481 13.481 0 0 0 295.959 73.663 A 17.298 17.298 0 0 0 297.1 73.7 Z M 679.1 73.7 A 12.719 12.719 0 0 0 683.09 73.097 A 10.779 10.779 0 0 0 686.85 70.95 A 16.287 16.287 0 0 0 690.795 65.709 A 20.215 20.215 0 0 0 691.6 63.8 Q 693.2 59.4 693.2 54.5 A 38.432 38.432 0 0 0 692.664 47.947 A 30.53 30.53 0 0 0 691.3 42.75 Q 689.4 37.5 685.65 34.35 A 13.386 13.386 0 0 0 677.986 31.262 A 17.398 17.398 0 0 0 676.5 31.2 A 13.236 13.236 0 0 0 672.385 31.818 A 11.332 11.332 0 0 0 668.8 33.75 A 15.159 15.159 0 0 0 664.975 38.346 A 19.293 19.293 0 0 0 663.9 40.65 A 24.658 24.658 0 0 0 662.402 46.802 A 31.136 31.136 0 0 0 662.2 50.4 A 35.655 35.655 0 0 0 662.849 57.333 A 29.162 29.162 0 0 0 664.25 62.2 A 23.019 23.019 0 0 0 666.545 66.685 A 17.982 17.982 0 0 0 670.05 70.6 A 13.481 13.481 0 0 0 677.959 73.663 A 17.298 17.298 0 0 0 679.1 73.7 Z M 1087.5 73.7 A 12.719 12.719 0 0 0 1091.49 73.097 A 10.779 10.779 0 0 0 1095.25 70.95 A 16.287 16.287 0 0 0 1099.195 65.709 A 20.215 20.215 0 0 0 1100 63.8 Q 1101.6 59.4 1101.6 54.5 A 38.432 38.432 0 0 0 1101.064 47.947 A 30.53 30.53 0 0 0 1099.7 42.75 Q 1097.8 37.5 1094.05 34.35 A 13.386 13.386 0 0 0 1086.386 31.262 A 17.398 17.398 0 0 0 1084.9 31.2 A 13.236 13.236 0 0 0 1080.785 31.818 A 11.332 11.332 0 0 0 1077.2 33.75 A 15.159 15.159 0 0 0 1073.375 38.346 A 19.293 19.293 0 0 0 1072.3 40.65 A 24.658 24.658 0 0 0 1070.802 46.802 A 31.136 31.136 0 0 0 1070.6 50.4 A 35.655 35.655 0 0 0 1071.249 57.333 A 29.162 29.162 0 0 0 1072.65 62.2 A 23.019 23.019 0 0 0 1074.945 66.685 A 17.982 17.982 0 0 0 1078.45 70.6 A 13.481 13.481 0 0 0 1086.359 73.663 A 17.298 17.298 0 0 0 1087.5 73.7 Z M 1140.5 73.7 A 12.719 12.719 0 0 0 1144.49 73.097 A 10.779 10.779 0 0 0 1148.25 70.95 A 16.287 16.287 0 0 0 1152.195 65.709 A 20.215 20.215 0 0 0 1153 63.8 Q 1154.6 59.4 1154.6 54.5 A 38.432 38.432 0 0 0 1154.064 47.947 A 30.53 30.53 0 0 0 1152.7 42.75 Q 1150.8 37.5 1147.05 34.35 A 13.386 13.386 0 0 0 1139.386 31.262 A 17.398 17.398 0 0 0 1137.9 31.2 A 13.236 13.236 0 0 0 1133.785 31.818 A 11.332 11.332 0 0 0 1130.2 33.75 A 15.159 15.159 0 0 0 1126.375 38.346 A 19.293 19.293 0 0 0 1125.3 40.65 A 24.658 24.658 0 0 0 1123.802 46.802 A 31.136 31.136 0 0 0 1123.6 50.4 A 35.655 35.655 0 0 0 1124.249 57.333 A 29.162 29.162 0 0 0 1125.65 62.2 A 23.019 23.019 0 0 0 1127.945 66.685 A 17.982 17.982 0 0 0 1131.45 70.6 A 13.481 13.481 0 0 0 1139.359 73.663 A 17.298 17.298 0 0 0 1140.5 73.7 Z M 1377.9 73.7 A 12.719 12.719 0 0 0 1381.89 73.097 A 10.779 10.779 0 0 0 1385.65 70.95 A 16.287 16.287 0 0 0 1389.595 65.709 A 20.215 20.215 0 0 0 1390.4 63.8 Q 1392 59.4 1392 54.5 A 38.432 38.432 0 0 0 1391.464 47.947 A 30.53 30.53 0 0 0 1390.1 42.75 Q 1388.2 37.5 1384.45 34.35 A 13.386 13.386 0 0 0 1376.786 31.262 A 17.398 17.398 0 0 0 1375.3 31.2 A 13.236 13.236 0 0 0 1371.185 31.818 A 11.332 11.332 0 0 0 1367.6 33.75 A 15.159 15.159 0 0 0 1363.775 38.346 A 19.293 19.293 0 0 0 1362.7 40.65 A 24.658 24.658 0 0 0 1361.202 46.802 A 31.136 31.136 0 0 0 1361 50.4 A 35.655 35.655 0 0 0 1361.649 57.333 A 29.162 29.162 0 0 0 1363.05 62.2 A 23.019 23.019 0 0 0 1365.345 66.685 A 17.982 17.982 0 0 0 1368.85 70.6 A 13.481 13.481 0 0 0 1376.759 73.663 A 17.298 17.298 0 0 0 1377.9 73.7 Z M 720.3 37.4 L 720.3 69.3 A 31.98 31.98 0 0 0 723.756 71.249 A 25.565 25.565 0 0 0 726.4 72.35 A 18.528 18.528 0 0 0 730.423 73.252 A 23.518 23.518 0 0 0 733.1 73.4 Q 737.2 73.4 740.65 71.3 A 12.292 12.292 0 0 0 744.02 68.211 Q 745.248 66.602 746.2 64.45 A 21.334 21.334 0 0 0 747.48 60.459 Q 747.941 58.387 748.143 55.938 A 49.233 49.233 0 0 0 748.3 51.9 A 33.635 33.635 0 0 0 748.003 47.297 Q 747.672 44.901 746.97 42.902 A 17.065 17.065 0 0 0 746.1 40.85 A 17.679 17.679 0 0 0 743.917 37.484 A 13.292 13.292 0 0 0 740.35 34.45 A 15.189 15.189 0 0 0 735.699 32.665 A 13.824 13.824 0 0 0 733 32.4 A 18.466 18.466 0 0 0 728.069 33.043 A 16.59 16.59 0 0 0 726.15 33.7 A 20.533 20.533 0 0 0 720.512 37.214 A 23.133 23.133 0 0 0 720.3 37.4 Z M 994.8 37.4 L 994.8 69.3 A 31.98 31.98 0 0 0 998.256 71.249 A 25.565 25.565 0 0 0 1000.9 72.35 A 18.528 18.528 0 0 0 1004.923 73.252 A 23.518 23.518 0 0 0 1007.6 73.4 Q 1011.6 73.4 1015.1 71.3 A 12.346 12.346 0 0 0 1018.595 68.099 Q 1019.633 66.725 1020.466 64.962 A 22.276 22.276 0 0 0 1020.7 64.45 A 21.334 21.334 0 0 0 1021.98 60.459 Q 1022.441 58.387 1022.643 55.938 A 49.233 49.233 0 0 0 1022.8 51.9 A 33.635 33.635 0 0 0 1022.503 47.297 Q 1022.172 44.901 1021.47 42.902 A 17.065 17.065 0 0 0 1020.6 40.85 Q 1018.4 36.5 1014.9 34.45 Q 1011.4 32.4 1007.5 32.4 A 18.466 18.466 0 0 0 1002.569 33.043 A 16.59 16.59 0 0 0 1000.65 33.7 A 20.533 20.533 0 0 0 995.012 37.214 A 23.133 23.133 0 0 0 994.8 37.4 Z M 561.4 60.3 L 565.5 37.1 Q 564.2 36 562.6 35.2 A 6.623 6.623 0 0 0 561.182 34.697 Q 560.486 34.53 559.661 34.457 A 15.45 15.45 0 0 0 558.3 34.4 A 10.602 10.602 0 0 0 551.703 36.698 A 7.757 7.757 0 0 0 551.7 36.7 Q 548.7 39 546.5 42.85 Q 544.3 46.7 543.15 51.45 Q 542 56.2 542 61.1 A 20.561 20.561 0 0 0 542.115 63.349 Q 542.408 66.005 543.45 67.55 A 4.971 4.971 0 0 0 544.878 68.981 Q 545.997 69.7 547.5 69.7 A 9.983 9.983 0 0 0 552.131 68.524 A 14.426 14.426 0 0 0 554.7 66.8 A 60.988 60.988 0 0 0 560.999 60.747 A 66.893 66.893 0 0 0 561.4 60.3 Z M 75.6 46.7 L 102.8 46.7 A 35.238 35.238 0 0 0 101.864 42.059 Q 101.211 39.707 100.256 37.816 A 16.474 16.474 0 0 0 98.7 35.3 A 10.035 10.035 0 0 0 92.205 31.427 A 15.358 15.358 0 0 0 89.5 31.2 A 11.338 11.338 0 0 0 82.358 33.747 A 15.925 15.925 0 0 0 80.7 35.25 Q 77.288 38.794 75.942 44.902 A 32.683 32.683 0 0 0 75.6 46.7 Z M 400.4 46.7 L 427.6 46.7 A 35.238 35.238 0 0 0 426.664 42.059 Q 426.011 39.707 425.056 37.816 A 16.474 16.474 0 0 0 423.5 35.3 A 10.035 10.035 0 0 0 417.005 31.427 A 15.358 15.358 0 0 0 414.3 31.2 A 11.338 11.338 0 0 0 407.158 33.747 A 15.925 15.925 0 0 0 405.5 35.25 Q 402.088 38.794 400.742 44.902 A 32.683 32.683 0 0 0 400.4 46.7 Z M 770.2 46.7 L 797.4 46.7 A 35.238 35.238 0 0 0 796.464 42.059 Q 795.811 39.707 794.856 37.816 A 16.474 16.474 0 0 0 793.3 35.3 A 10.035 10.035 0 0 0 786.805 31.427 A 15.358 15.358 0 0 0 784.1 31.2 A 11.338 11.338 0 0 0 776.958 33.747 A 15.925 15.925 0 0 0 775.3 35.25 Q 771.888 38.794 770.542 44.902 A 32.683 32.683 0 0 0 770.2 46.7 Z M 887.1 46.7 L 914.3 46.7 A 35.238 35.238 0 0 0 913.364 42.059 Q 912.711 39.707 911.756 37.816 A 16.474 16.474 0 0 0 910.2 35.3 A 10.035 10.035 0 0 0 903.705 31.427 A 15.358 15.358 0 0 0 901 31.2 A 11.338 11.338 0 0 0 893.858 33.747 A 15.925 15.925 0 0 0 892.2 35.25 Q 888.788 38.794 887.442 44.902 A 32.683 32.683 0 0 0 887.1 46.7 Z M 1291.928 74.961 A 4.389 4.389 0 0 0 1293.9 75.4 Q 1295.8 75.4 1297.1 74.05 Q 1298.4 72.7 1298.4 70.9 Q 1298.4 69.1 1297.1 67.75 A 4.423 4.423 0 0 0 1295.872 66.839 A 4.389 4.389 0 0 0 1293.9 66.4 Q 1292 66.4 1290.7 67.75 Q 1289.4 69.1 1289.4 70.9 Q 1289.4 72.7 1290.7 74.05 A 4.423 4.423 0 0 0 1291.928 74.961 Z" vector-effect="non-scaling-stroke"/></g></svg>